HIERARCHY
ROOT Hips
{
	OFFSET -0.001795 -0.223333 0.028219
	CHANNELS 6 Xposition Yposition Zposition Zrotation Yrotation Xrotation 
	JOINT LeftUpLeg
	{
		OFFSET 0.069520 -0.091406 -0.006815
		CHANNELS 3 Zrotation Yrotation Xrotation
		JOINT LeftLeg
		{
			OFFSET 0.034277 -0.375199 -0.004496
			CHANNELS 3 Zrotation Yrotation Xrotation
			JOINT LeftFoot
			{
				OFFSET -0.013596 -0.397961 -0.043693
				CHANNELS 3 Zrotation Yrotation Xrotation
				JOINT LeftToe
				{
					OFFSET 0.026358 -0.055791 0.119288
					CHANNELS 3 Zrotation Yrotation Xrotation
					End Site
					{
						OFFSET 0.000000 0.000000 0.000000
					}
				}
			}
		}
	}
	JOINT RightUpLeg
	{
		OFFSET -0.067670 -0.090522 -0.004320
		CHANNELS 3 Zrotation Yrotation Xrotation
		JOINT RightLeg
		{
			OFFSET -0.038290 -0.382569 -0.008850
			CHANNELS 3 Zrotation Yrotation Xrotation
			JOINT RightFoot
			{
				OFFSET 0.015774 -0.398415 -0.042312
				CHANNELS 3 Zrotation Yrotation Xrotation
				JOINT RightToe
				{
					OFFSET -0.025372 -0.048144 0.123348
					CHANNELS 3 Zrotation Yrotation Xrotation
					End Site
					{
						OFFSET 0.000000 0.000000 0.000000
					}
				}
			}
		}
	}
	JOINT Spine
	{
		OFFSET -0.002533 0.108963 -0.026696
		CHANNELS 3 Zrotation Yrotation Xrotation
		JOINT Spine1
		{
			OFFSET 0.005487 0.135180 0.001092
			CHANNELS 3 Zrotation Yrotation Xrotation
			JOINT Spine2
			{
				OFFSET 0.001457 0.052922 0.025425
				CHANNELS 3 Zrotation Yrotation Xrotation
				JOINT Neck
				{
					OFFSET -0.002778 0.213870 -0.042857
					CHANNELS 3 Zrotation Yrotation Xrotation
					JOINT Head
					{
						OFFSET 0.005152 0.064970 0.051349
						CHANNELS 3 Zrotation Yrotation Xrotation
						End Site
						{
							OFFSET 0.000000 0.000000 0.000000
						}
					}
				}
				JOINT LeftShoulder
				{
					OFFSET 0.078845 0.121749 -0.034090
					CHANNELS 3 Zrotation Yrotation Xrotation
					JOINT LeftArm
					{
						OFFSET 0.090977 0.030469 -0.008868
						CHANNELS 3 Zrotation Yrotation Xrotation
						JOINT LeftForeArm
						{
							OFFSET 0.259612 -0.012772 -0.027456
							CHANNELS 3 Zrotation Yrotation Xrotation
							JOINT LeftHand
							{
								OFFSET 0.249234 0.008986 -0.001171
								CHANNELS 3 Zrotation Yrotation Xrotation
								End Site
								{
									OFFSET 0.000000 0.000000 0.000000
								}
							}
						}
					}
				}
				JOINT RightShoulder
				{
					OFFSET -0.081759 0.118833 -0.038615
					CHANNELS 3 Zrotation Yrotation Xrotation
					JOINT RightArm
					{
						OFFSET -0.096012 0.032551 -0.009143
						CHANNELS 3 Zrotation Yrotation Xrotation
						JOINT RightForeArm
						{
							OFFSET -0.253742 -0.013329 -0.021401
							CHANNELS 3 Zrotation Yrotation Xrotation
							JOINT RightHand
							{
								OFFSET -0.255298 0.007772 -0.005559
								CHANNELS 3 Zrotation Yrotation Xrotation
								End Site
								{
									OFFSET 0.000000 0.000000 0.000000
								}
							}
						}
					}
				}
			}
		}
	}
}
MOTION
Frames: 9
Frame Time: 0.050000
0.009171 0.971211 0.028527 -0.931734 -10.789368 0.440931 4.037296 0.223935 2.741841 2.843394 -0.134161 -3.841279 -4.939615 -3.277073 16.520460 0.000000 0.000000 0.000000 -0.411959 0.076453 -0.667879 -5.066736 0.316794 -1.720630 4.953705 -0.917994 18.933059 0.000000 0.000000 0.000000 7.845195 -0.758785 7.103119 -5.251194 2.405059 -2.309744 -10.916870 6.789098 -6.374714 12.947759 -12.586906 7.577363 0.000000 0.000000 0.000000 10.089461 2.220167 1.119032 -16.369359 -39.604118 2.140045 74.887073 -27.299451 -21.505960 0.000000 0.000000 0.000000 -26.759632 -8.382440 0.807556 -17.610957 30.140642 -4.432141 -71.698076 5.048416 0.574095 0.000000 0.000000 0.000000 
0.009830 0.971035 0.030909 -1.281822 -8.864837 0.368986 4.837203 0.192821 2.762752 2.572021 -0.124966 -3.440047 -6.167494 -5.454906 15.136607 0.000000 0.000000 0.000000 0.048602 -0.075181 0.793064 -4.993964 0.219312 -3.026299 3.841133 -2.283351 18.721963 0.000000 0.000000 0.000000 7.385749 -0.758354 7.215333 -4.161910 1.892078 -2.675550 -9.450002 5.800935 -6.799085 10.828335 -10.545614 7.498514 0.000000 0.000000 0.000000 15.109917 0.867623 2.178549 -3.534059 -44.998535 -1.635969 74.324278 -11.404640 -9.478603 0.000000 0.000000 0.000000 -28.183185 -7.756230 1.222196 -18.067741 32.549091 -5.061863 -69.635304 2.016410 2.360093 0.000000 0.000000 0.000000 
0.010994 0.970209 0.033165 -1.840672 -7.977144 0.272439 5.729280 0.163585 2.663192 2.187543 -0.086993 -3.426354 -6.870091 -6.204194 15.634656 0.000000 0.000000 0.000000 0.500173 -0.194296 1.822903 -4.965476 0.164245 -3.779434 3.704595 -2.175246 18.386856 0.000000 0.000000 0.000000 7.026854 -0.722629 7.007717 -3.669880 1.688704 -2.252920 -7.569682 5.604918 -7.964786 10.268759 -10.010782 7.730372 0.000000 0.000000 0.000000 20.054542 0.070332 3.050630 10.330595 -46.811596 -6.711167 70.536281 2.622290 0.731759 0.000000 0.000000 0.000000 -27.993216 -7.587348 1.366954 -18.664257 34.871549 -5.721486 -67.739368 0.782600 2.964974 0.000000 0.000000 0.000000 
0.013313 0.969819 0.034916 -1.990844 -6.801209 0.542047 6.117892 0.118729 2.341878 1.843785 -0.045155 -3.549424 -7.657041 -7.369369 15.452522 0.000000 0.000000 0.000000 0.573062 -0.204551 1.865768 -4.941942 0.182150 -3.614521 3.103219 -2.746316 17.874884 0.000000 0.000000 0.000000 6.423141 -0.629695 6.207121 -2.634213 1.215289 -2.329844 -6.767307 5.299929 -8.091954 9.075602 -8.999789 7.928406 0.000000 0.000000 0.000000 24.271941 -0.557611 3.714939 16.378732 -45.989877 -8.801890 69.112561 9.918341 5.450768 0.000000 0.000000 0.000000 -27.967090 -7.490526 1.380505 -17.916574 36.417933 -5.865610 -66.515250 0.229824 3.216721 0.000000 0.000000 0.000000 
0.016627 0.968989 0.035769 -1.950824 -6.836230 0.140973 6.099721 0.112326 2.035883 1.590288 -0.076984 -2.457595 -7.924917 -7.777169 15.483987 0.000000 0.000000 0.000000 0.268934 -0.199908 1.991654 -4.840903 0.228571 -2.948401 2.981784 -2.764333 17.417132 0.000000 0.000000 0.000000 6.277462 -0.663739 6.794996 -2.436935 1.106652 -3.427801 -5.508419 5.900099 -7.666811 8.837792 -8.455497 6.565965 0.000000 0.000000 0.000000 25.755055 -0.447677 3.891538 17.000171 -44.759214 -8.741461 69.025288 10.650208 5.839164 0.000000 0.000000 0.000000 -27.258264 -7.825997 1.185185 -16.850388 37.358855 -5.769254 -68.027427 0.965844 2.850588 0.000000 0.000000 0.000000 
0.021068 0.967230 0.035472 -1.443976 -7.431625 -0.632737 5.142991 0.150422 2.192197 1.764827 -0.165690 -1.054088 -7.456266 -7.719694 14.233777 0.000000 0.000000 0.000000 -0.639610 -0.167388 2.194608 -4.273834 0.260745 -1.932748 2.310482 -3.483242 16.101572 0.000000 0.000000 0.000000 6.325999 -0.739475 7.902035 -2.132076 0.971301 -3.089557 -5.206373 6.597936 -8.791468 8.508884 -7.887248 5.452136 0.000000 0.000000 0.000000 24.794965 0.549271 3.811827 11.726308 -44.529639 -6.878536 69.403542 6.070584 2.672065 0.000000 0.000000 0.000000 -26.423616 -7.861854 1.029681 -14.941669 38.606828 -5.423212 -69.063102 1.010755 3.010736 0.000000 0.000000 0.000000 
0.025782 0.962854 0.033982 -1.277933 -7.499397 -1.314098 4.993449 0.127585 1.565725 1.220929 -0.202538 1.288719 -7.022118 -8.004015 12.196821 0.000000 0.000000 0.000000 -1.180793 -0.087506 1.557789 -3.237768 0.342953 0.486672 0.641670 -5.561453 13.885623 0.000000 0.000000 0.000000 7.425424 -0.837292 8.378893 -2.288545 1.047762 -2.809954 -5.547488 7.093409 -8.674979 8.405381 -7.741810 4.994865 0.000000 0.000000 0.000000 21.306544 0.838810 3.356921 3.236325 -42.751759 -3.804019 71.044222 -4.715314 -4.792915 0.000000 0.000000 0.000000 -23.152439 -7.688192 0.409648 -13.770689 40.403176 -5.311977 -73.700443 1.670882 2.943714 0.000000 0.000000 0.000000 
0.030455 0.954817 0.031771 -0.980991 -7.963801 -2.647946 4.497436 0.102514 0.741159 0.989730 -0.306415 5.177119 -6.140865 -8.044091 9.124141 0.000000 0.000000 0.000000 -2.249411 0.043052 0.418646 -1.674246 0.446280 4.781044 -0.912386 -7.255020 10.625199 0.000000 0.000000 0.000000 8.376534 -1.069865 10.548199 -2.510233 1.136734 -3.435949 -6.282547 8.270844 -8.107668 9.716673 -8.638379 3.816024 0.000000 0.000000 0.000000 15.162599 1.259094 2.460062 -7.070985 -40.053558 -0.566907 70.733392 -20.874361 -16.198126 0.000000 0.000000 0.000000 -17.542564 -8.857699 -0.834412 -12.602645 41.403954 -4.986876 -80.398715 2.761163 2.698783 0.000000 0.000000 0.000000 
0.034637 0.944473 0.030330 -0.476089 -7.888507 -4.322576 4.415191 0.095146 0.286672 -0.200970 -0.172884 9.003754 -5.499618 -8.629672 5.653714 0.000000 0.000000 0.000000 -3.421352 0.104369 -0.048519 -0.715595 0.552220 8.721936 -2.114787 -8.311145 7.129573 0.000000 0.000000 0.000000 8.824085 -1.116166 11.185486 -1.912829 0.886904 -2.220684 -7.461307 8.412840 -7.291709 9.808484 -8.335411 2.214708 0.000000 0.000000 0.000000 9.688267 2.404715 1.276321 -19.097786 -36.589374 2.428005 67.229735 -36.172321 -25.589211 0.000000 0.000000 0.000000 -12.513368 -7.857652 -1.397151 -9.373471 41.429884 -4.032053 -89.095719 5.289727 0.702685 0.000000 0.000000 0.000000 
